<?xml version="1.0" encoding="UTF-8"?><svg id="Layer_1" xmlns="http://www.w3.org/2000/svg" viewBox="0 0 250 250"><defs><style>.cls-1{fill:#fff;}</style></defs><path class="cls-1" d="M231.47,246.49c5.23,5.14,13.93,4.6,17.27-2.25,2.68-5.49.57-9.11-2.97-13.28-18.24-21.5-40.48-41.19-58.88-62.75-6.79-5.98-11.34-3.29-19.09-2.94-6.06.28-13.01-.58-19-1.65-7.67-1.37-16.78-6.36-21.01,3.34-6.34,14.52,14.92,17.48,24.78,18.39,6.57.61,15-.35,21.11.47.54.07,1.05.07,1.47.49l56.31,60.17Z"/><path d="M231.47,246.49l-56.31-60.17c-.42-.42-.93-.42-1.47-.49-6.12-.82-14.54.14-21.11-.47-9.87-.91-31.12-3.88-24.78-18.39,4.23-9.69,13.34-4.7,21.01-3.34,5.98,1.07,12.94,1.92,19,1.65,7.75-.35,12.31-3.04,19.09,2.94,18.41,21.56,40.64,41.25,58.88,62.75,3.54,4.17,5.64,7.79,2.97,13.28-3.34,6.85-12.04,7.38-17.27,2.25Z"/><path d="M3.03,232.93c50.07-50.73,106.17-106.62,157.02-157.17,17.66-17.34,36.17-33.75,55.75-48.98,2.35-1.8,5.71-1.35,7.51,1,1.5,1.96,1.43,4.64,0,6.51-7.57,9.89-15.6,19.31-23.76,28.61-38.33,42.41-89.76,91.24-129.82,132-17.45,17.46-35.04,34.78-52.56,52.17-3.92,3.89-10.25,3.87-14.14-.05-3.87-3.9-3.86-10.19,0-14.09h0Z"/><path d="M123.02,112.74c-15.45-14.96-17.89-42.91-1.86-58.43,8.57-7.57,17.27-15,26.09-22.29,12.34-10.42,26.2-21.6,39.5-30.68,4.28-2.88,9.28,2.54,6.04,6.57-3.53,4.32-7.17,8.51-10.86,12.64-10.55,11.95-23.32,24.43-34.53,35.74-4.14,4.15-8.39,8.18-12.59,12.26-.32.37-.71.86-1.01,1.26-5.74,8.58-3.34,21.29,3.35,28.78,3.94,4.09,3.71,10.68-.55,14.44-3.93,3.49-9.87,3.29-13.59-.3h0Z"/><path d="M152.27,111.47c7.81,7,21.64,9.4,30.02,2.37,7.76-8.11,15.65-16.08,23.67-23.93,11.3-11.32,24.06-23.47,36.43-33.52,4.02-3.22,9.46,1.76,6.58,6.04-8.98,13.21-20.11,27.04-30.46,39.3-7.13,8.64-14.39,17.17-21.8,25.56-.29.38-1.26,1.23-1.6,1.59-15.89,14.51-42.46,11.67-56.98-3.27-8.74-9.75,4.43-22.85,14.14-14.14h0Z"/><path class="cls-1" d="M21.54,22.02c1.66,1.31,3.22,2.87,4.66,4.41,14.42,15.36,28.56,32.03,43.39,46.85,4.06,4.06,7.48,7.33,13.76,5.39,7.78-2.41,8.41-11.5,3.68-17.42-14.32-17.89-34-33.98-48.56-51.98C25.23-7.13,2.36-.53.46,20.8c-3.06,34.35,26.51,80.15,48.3,105.19,5.42,6.23,13.98,17.88,23.07,9.81,9.81-8.71-3.74-19.26-9.07-25.77C41.88,84.53,21.73,56.62,21.54,22.02Z"/><path d="M21.54,22.02c.19,34.61,20.34,62.51,41.21,88.02,5.33,6.51,18.88,17.05,9.07,25.77-9.09,8.07-17.65-3.58-23.07-9.81C26.96,100.95-2.61,55.15.46,20.8,2.36-.53,25.23-7.13,38.47,9.26c14.56,18.01,34.24,34.09,48.56,51.98,4.74,5.92,4.1,15.01-3.68,17.42-6.27,1.94-9.7-1.33-13.76-5.39-14.83-14.83-28.97-31.5-43.39-46.85-1.45-1.54-3-3.1-4.66-4.41Z"/></svg>