<?xml version="1.0" encoding="UTF-8"?><svg id="Layer_1" xmlns="http://www.w3.org/2000/svg" viewBox="0 0 250 250"><path d="M119.06.06C26.42,5.02-30.26,105.98,16.68,187.1c48.32,83.51,168.37,83.51,216.69,0C282.57,102.07,216.68-5.17,119.06.06ZM216.62,174.75c-37.03,68.37-133.42,72.98-177.68,9.13C-5.91,119.19,37.09,26.78,115.64,21.06c83.02-6.04,141.02,79.79,100.98,153.7Z"/><path d="M122.46,52.3c-8.08,1.1-13.78,9.14-12.93,17.08,1.49,14.01,19.9,18.69,28.11,7.38,8.17-11.26-1.31-26.33-15.18-24.45Z"/><path d="M124.61,105.06c-6.9,0-12.5,5.6-12.5,12.5v71.7c0,6.9,5.6,12.5,12.5,12.5s12.5-5.6,12.5-12.5v-71.7c0-6.9-5.6-12.5-12.5-12.5Z"/></svg>