<svg width="228" height="48" viewBox="0 0 228 48" fill="none" xmlns="http://www.w3.org/2000/svg">
<path d="M24.3623 12V24L32.3623 28M44.3623 24C44.3623 35.0457 35.408 44 24.3623 44C13.3166 44 4.3623 35.0457 4.3623 24C4.3623 12.9543 13.3166 4 24.3623 4C35.408 4 44.3623 12.9543 44.3623 24Z" stroke="white" stroke-width="4" stroke-linecap="round" stroke-linejoin="round"/>
<path d="M122.551 0.190383C123.598 -0.174426 124.763 -0.00869153 125.666 0.633743C126.571 1.27622 127.111 2.32147 127.111 3.42964V8.07808H127.113C129.107 8.38814 130.638 10.1177 130.638 12.1972V43.8291C130.638 46.1291 128.767 47.9998 126.467 48H101.533C99.233 48 97.3623 46.1292 97.3623 43.8291V12.1972C97.3623 10.0434 99.0048 8.26359 101.104 8.04878L122.521 0.200149C122.531 0.196347 122.541 0.194185 122.551 0.190383ZM101.533 11.8193C101.505 11.8193 101.478 11.8154 101.451 11.8154C101.276 11.8535 101.142 12.0129 101.142 12.1972V43.8271C101.142 44.04 101.32 44.2187 101.533 44.2187H126.467C126.68 44.2185 126.858 44.0399 126.858 43.8271V12.1992C126.858 11.9864 126.68 11.8077 126.467 11.8076H101.736C101.668 11.8133 101.6 11.8193 101.533 11.8193ZM121.376 35.2783C122.425 35.2785 123.276 36.1304 123.276 37.1796C123.276 38.2289 122.425 39.0808 121.376 39.081H106.407C105.358 39.081 104.506 38.229 104.506 37.1796C104.506 36.1303 105.358 35.2783 106.407 35.2783H121.376ZM121.376 26.2412C122.425 26.2414 123.276 27.0933 123.276 28.1425C123.276 29.1917 122.425 30.0437 121.376 30.0439H106.407C105.358 30.0439 104.506 29.1918 104.506 28.1425C104.506 27.0932 105.358 26.2412 106.407 26.2412H121.376ZM121.376 17.2041C122.425 17.2042 123.276 18.0562 123.276 19.1054C123.276 20.1546 122.425 21.0056 121.376 21.0058H106.407C105.358 21.0058 104.506 20.1547 104.506 19.1054C104.506 18.0561 105.358 17.2041 106.407 17.2041H121.376ZM112.213 8.02632H123.309V3.95991L112.213 8.02632Z" fill="white"/>
<path d="M221.318 9.22023C220.296 8.19824 219.083 7.38753 217.748 6.8344C216.413 6.28128 214.983 5.99658 213.538 5.99658C212.093 5.99658 210.662 6.28128 209.327 6.8344C207.992 7.38753 206.779 8.19824 205.758 9.22023L203.638 11.3402L201.518 9.22023C199.454 7.15685 196.656 5.99765 193.738 5.99765C190.82 5.99765 188.021 7.15685 185.958 9.22023C183.894 11.2836 182.735 14.0822 182.735 17.0002C182.735 19.9183 183.894 22.7168 185.958 24.7802L203.638 42.4602L221.318 24.7802C222.34 23.7587 223.15 22.5459 223.704 21.2109C224.257 19.876 224.541 18.4452 224.541 17.0002C224.541 15.5553 224.257 14.1244 223.704 12.7895C223.15 11.4546 222.34 10.2417 221.318 9.22023Z" stroke="white" stroke-width="4" stroke-linecap="round" stroke-linejoin="round"/>
</svg>
