<svg width="245" height="182" viewBox="0 0 245 182" fill="none" xmlns="http://www.w3.org/2000/svg">
<g clip-path="url(#clip0_160_2446)">
<path d="M116.727 48.7531H152.778C153.515 48.7531 154.144 48.495 154.661 47.9788C155.177 47.4392 155.436 46.815 155.436 46.097V38.0724C155.436 37.3356 155.177 36.7068 154.661 36.1906C154.144 35.6744 153.52 35.4163 152.778 35.4163H128.085C127.634 35.4163 127.414 35.191 127.414 34.7452V30.7469C127.414 30.3011 127.639 30.0759 128.085 30.0759H143.876C144.613 30.0759 145.242 29.8178 145.759 29.3016C146.294 28.7619 146.566 28.1284 146.566 27.3869V22.0794C146.566 21.3426 146.299 20.7044 145.759 20.1647C145.242 19.6485 144.618 19.3904 143.876 19.3904H128.085C127.634 19.3904 127.414 19.1652 127.414 18.7194V14.7211C127.414 14.2753 127.639 14.05 128.085 14.05H152.778C153.515 14.05 154.144 13.7919 154.661 13.2757C155.177 12.7595 155.436 12.1354 155.436 11.3939V3.38805C155.436 2.65128 155.177 2.02245 154.661 1.50624C154.144 0.990036 153.52 0.731934 152.778 0.731934H116.727C116.009 0.731934 115.384 0.990036 114.844 1.50624C114.328 2.02245 114.069 2.64659 114.069 3.38805V46.1017C114.069 46.8197 114.328 47.4438 114.844 47.9835C115.384 48.4997 116.009 48.7578 116.727 48.7578V48.7531Z" fill="white"/>
<path d="M162.451 48.7533H171.053C172.264 48.7533 173.09 48.1808 173.536 47.0405L175.316 42.5072C175.429 42.2163 175.631 42.0708 175.922 42.0708H193.628C193.943 42.0708 194.154 42.2163 194.267 42.5072L195.98 47.0405C196.408 48.1808 197.234 48.7533 198.464 48.7533H207.033C207.972 48.7533 208.714 48.3732 209.249 47.613C209.766 46.8293 209.855 46.0033 209.517 45.1305L193.295 2.44968C192.867 1.30934 192.041 0.736816 190.811 0.736816H179.152C177.922 0.736816 177.091 1.29526 176.668 2.41683L159.972 45.1305C159.638 46.0033 159.723 46.8199 160.239 47.5801C160.779 48.3638 161.516 48.7533 162.455 48.7533H162.451ZM181.03 27.8329L184.289 19.5408C184.402 19.2733 184.603 19.1372 184.895 19.1372C185.209 19.1372 185.42 19.2827 185.533 19.5736L188.693 27.8329C188.759 28.0582 188.726 28.2693 188.595 28.4711C188.458 28.6495 188.28 28.7386 188.055 28.7386H181.674C181.425 28.7386 181.246 28.6401 181.138 28.4383C181.002 28.26 180.969 28.0582 181.04 27.8329H181.03Z" fill="white"/>
<path d="M244.225 1.50624C243.709 0.990036 243.084 0.731934 242.342 0.731934H204.948C204.23 0.731934 203.606 0.990036 203.066 1.50624C202.549 2.02245 202.291 2.64659 202.291 3.38805V11.4127C202.291 12.1495 202.549 12.7783 203.066 13.2945C203.606 13.8107 204.23 14.0688 204.948 14.0688H216.302C216.748 14.0688 216.973 14.2941 216.973 14.7399V46.1017C216.973 46.8197 217.232 47.4438 217.748 47.9835C218.283 48.4997 218.913 48.7578 219.631 48.7578H227.66C228.397 48.7578 229.026 48.4997 229.543 47.9835C230.059 47.4438 230.318 46.8197 230.318 46.1017V14.7352C230.318 14.2894 230.543 14.0641 230.989 14.0641H242.342C243.08 14.0641 243.709 13.806 244.225 13.2898C244.742 12.7736 245 12.1495 245 11.408V3.38805C245 2.65128 244.742 2.02245 244.225 1.50624Z" fill="white"/>
<path d="M116.727 86.4928H124.756C125.493 86.4928 126.122 86.2347 126.639 85.7185C127.155 85.1835 127.414 84.5547 127.414 83.8367V73.1606C127.414 72.4238 127.681 71.795 128.221 71.2788C128.738 70.7391 129.362 70.4716 130.104 70.4716C130.846 70.4716 131.471 70.2135 131.987 69.6973C132.504 69.1811 132.762 68.557 132.762 67.8155V59.8237C132.762 59.087 132.504 58.4487 131.987 57.9091C131.471 57.3929 130.846 57.1348 130.104 57.1348C125.667 57.1348 121.897 58.7022 118.784 61.8369C115.647 64.9482 114.079 68.7212 114.079 73.1512V83.8273C114.079 84.5453 114.337 85.1694 114.854 85.7091C115.394 86.2253 116.018 86.4834 116.736 86.4834L116.727 86.4928Z" fill="white"/>
<path d="M150.792 86.291H175.485C176.222 86.291 176.851 86.0329 177.368 85.5167C177.884 85.0005 178.143 84.3763 178.143 83.6349V75.6102C178.143 74.8734 177.884 74.2446 177.368 73.7284C176.851 73.2122 176.227 72.9541 175.485 72.9541H139.434C138.715 72.9541 138.091 73.2122 137.551 73.7284C137.035 74.2446 136.776 74.8687 136.776 75.6102V118.324C136.776 119.042 137.035 119.666 137.551 120.206C138.091 120.722 138.715 120.98 139.434 120.98H175.485C176.222 120.98 176.851 120.722 177.368 120.206C177.884 119.666 178.143 119.042 178.143 118.324V110.299C178.143 109.562 177.884 108.934 177.368 108.417C176.851 107.901 176.227 107.643 175.485 107.643H150.792C150.341 107.643 150.121 107.418 150.121 106.972V102.978C150.121 102.533 150.346 102.307 150.792 102.307H166.582C167.32 102.307 167.949 102.049 168.465 101.533C169.001 100.993 169.273 100.36 169.273 99.6185V94.3109C169.273 93.5742 169.005 92.9359 168.465 92.3963C167.949 91.8801 167.324 91.622 166.582 91.622H150.792C150.341 91.622 150.121 91.3967 150.121 90.9509V86.9527C150.121 86.5068 150.346 86.2816 150.792 86.2816V86.291Z" fill="white"/>
<path d="M230.214 72.9585H221.312C220.392 72.9585 219.664 73.3386 219.129 74.0988L208.076 89.8807C207.939 90.0824 207.761 90.181 207.536 90.181C207.287 90.181 207.099 90.0824 206.963 89.8807L195.91 74.0988C195.37 73.3386 194.642 72.9585 193.727 72.9585H184.824C184.106 72.9585 183.481 73.2166 182.941 73.7328C182.425 74.249 182.167 74.8732 182.167 75.6146V118.328C182.167 119.046 182.425 119.67 182.941 120.21C183.481 120.726 184.106 120.984 184.824 120.984H192.853C193.59 120.984 194.22 120.726 194.736 120.21C195.253 119.67 195.511 119.046 195.511 118.328V98.8861C195.511 98.5717 195.666 98.3699 195.98 98.2807C196.295 98.1681 196.539 98.2479 196.717 98.5154L206.963 113.157C207.099 113.335 207.287 113.424 207.536 113.424C207.761 113.424 207.939 113.335 208.076 113.157L218.321 98.5154C218.523 98.2479 218.767 98.1681 219.058 98.2807C219.373 98.3699 219.528 98.5717 219.528 98.8861V118.328C219.528 119.046 219.795 119.67 220.335 120.21C220.852 120.726 221.476 120.984 222.218 120.984H230.214C230.951 120.984 231.581 120.726 232.097 120.21C232.632 119.67 232.905 119.046 232.905 118.328V75.6146C232.905 74.8778 232.637 74.249 232.097 73.7328C231.581 73.2166 230.956 72.9585 230.214 72.9585Z" fill="white"/>
<path d="M153.849 133.979H145.852C145.115 133.979 144.486 134.237 143.97 134.753C143.43 135.269 143.162 135.893 143.162 136.635V160.676C143.162 162.849 142.411 164.707 140.913 166.251C139.41 167.818 137.574 168.626 135.405 168.668C133.208 168.691 131.33 167.931 129.761 166.382C128.193 164.839 127.409 162.971 127.409 160.775V136.63C127.409 135.893 127.151 135.265 126.634 134.748C126.118 134.232 125.493 133.974 124.751 133.974H116.722C116.004 133.974 115.379 134.232 114.839 134.748C114.323 135.265 114.065 135.889 114.065 136.63V160.775C114.065 166.641 116.149 171.643 120.314 175.782C124.479 179.945 129.498 182.014 135.368 181.995C141.213 181.972 146.195 179.869 150.318 175.684C154.44 171.498 156.502 166.462 156.502 160.573V136.63C156.502 135.893 156.243 135.265 155.727 134.748C155.21 134.232 154.586 133.974 153.844 133.974L153.849 133.979Z" fill="white"/>
<path d="M183.885 133.979H163.188C162.469 133.979 161.845 134.237 161.305 134.753C160.789 135.27 160.53 135.894 160.53 136.635V179.349C160.53 180.067 160.789 180.691 161.305 181.231C161.845 181.747 162.469 182.005 163.188 182.005H171.217C171.954 182.005 172.583 181.747 173.1 181.231C173.616 180.691 173.875 180.067 173.875 179.349V170.653C173.875 170.207 174.1 169.982 174.546 169.982H183.683C188.679 169.982 192.957 168.246 196.516 164.778C200.075 161.286 201.868 157.053 201.892 152.084C201.934 147.114 200.187 142.848 196.652 139.291C193.135 135.753 188.881 133.984 183.885 133.984V133.979ZM187.247 155.237C186.327 156.176 185.209 156.645 183.885 156.645H174.546C174.095 156.645 173.875 156.42 173.875 155.974V147.982C173.875 147.536 174.1 147.311 174.546 147.311H183.819C185.096 147.311 186.195 147.757 187.111 148.653C188.05 149.526 188.533 150.601 188.557 151.877C188.599 153.177 188.163 154.294 187.247 155.237Z" fill="white"/>
<path d="M90.4611 53.183H90.4846C90.6066 53.1877 90.7334 53.1924 90.8555 53.1924C90.8743 53.1924 90.8931 53.1924 90.9165 53.1924C94.6634 53.1924 97.7436 50.1703 97.7718 46.4161C97.8046 42.6431 94.7902 39.5599 91.0151 39.5271H90.9682C90.8132 39.5177 90.663 39.5036 90.508 39.5177C76.8961 39.5177 64.0919 44.8158 54.4663 54.4407C44.8408 64.0609 39.535 76.8534 39.535 90.4625C39.535 118.553 62.4015 141.407 90.508 141.407C90.6583 141.407 90.8085 141.407 91.001 141.398C94.7574 141.351 97.7765 138.277 97.7483 134.518C97.7248 130.759 94.6681 127.733 90.9118 127.733H90.8649C90.7428 127.733 90.616 127.733 90.4564 127.742C69.9141 127.714 53.208 111.003 53.208 90.4625C53.208 80.5044 57.0863 71.1423 64.1341 64.1031C71.1678 57.0734 80.5163 53.1971 90.4611 53.183Z" fill="white"/>
<path d="M90.9166 167.251H90.5128C48.1417 167.255 13.6729 132.806 13.6729 90.458C13.6729 48.1104 48.1417 13.6654 90.5128 13.6654H90.8837C90.8837 13.6654 90.9072 13.6701 90.9212 13.6701C94.6823 13.6701 97.7389 10.6338 97.7577 6.87023C97.7765 3.09723 94.7292 0.0234639 90.9541 0.00469278H90.8555C90.7428 0.00469278 90.6301 0 90.5174 0C40.6056 0 0 40.5831 0 90.4627C0 140.342 40.6056 180.925 90.5128 180.925C90.6301 180.925 90.7428 180.925 90.8602 180.925H90.9635C94.7386 180.897 97.7812 177.819 97.753 174.046C97.7295 170.287 94.6729 167.26 90.9166 167.26V167.251Z" fill="white"/>
</g>
<defs>
<clipPath id="clip0_160_2446">
<rect width="245" height="182" fill="white"/>
</clipPath>
</defs>
</svg>
