<?xml version="1.0" encoding="UTF-8"?><svg id="Layer_1" xmlns="http://www.w3.org/2000/svg" viewBox="0 0 250 250"><defs><style>.cls-1{fill:#231f20;}</style></defs><path class="cls-1" d="M58.82,223.65L20.74,123.98c-2.04-5.35-.61-10.4,1.42-13.34.98-1.42,3.11-3.81,6.35-3.81h192.16c3.33,0,5.48,2.49,6.46,3.97,1.84,2.77,3.12,7.29,1.66,12.11h20.34c.98-8.07-.84-16.39-5.33-23.16-5.44-8.21-13.88-12.92-23.13-12.92H28.5c-9.05,0-17.37,4.54-22.82,12.47-6.26,9.09-7.65,21.29-3.62,31.82l38.08,99.67c4.5,11.77,14.88,19.38,26.45,19.38h17.67v-20h-17.67c-3.2,0-6.25-2.56-7.76-6.52Z"/><path class="cls-1" d="M20.6,64.54c12.33,7.43,26.15,11.69,37.91,11.69,21.1,0,35.4-10.45,39.25-27.88h141.67c5.5,0,9.96-4.46,9.96-9.96s-4.46-9.96-9.96-9.96H97.76C93.91,11,79.61.55,58.51.55c-11.77,0-25.58,4.26-37.91,11.69C12.7,16.99-.54,26.72-.54,38.39s13.25,21.39,21.14,26.15ZM58.51,20.46c13.9,0,20.38,5.69,20.38,17.92s-6.48,17.92-20.38,17.92c-15.84,0-34.87-12.08-38.73-17.92,3.86-5.84,22.9-17.92,38.73-17.92Z"/><path class="cls-1" d="M239.58,149.87h-127.52c-5.52,0-10,4.48-10,10s4.48,10,10,10h127.52c5.52,0,10-4.48,10-10s-4.48-10-10-10Z"/><path class="cls-1" d="M239.58,190.14h-127.52c-5.52,0-10,4.48-10,10s4.48,10,10,10h127.52c5.52,0,10-4.48,10-10s-4.48-10-10-10Z"/><path class="cls-1" d="M239.58,230.41h-127.52c-5.52,0-10,4.48-10,10s4.48,10,10,10h127.52c5.52,0,10-4.48,10-10s-4.48-10-10-10Z"/></svg>